<svg width="13" height="12" viewBox="0 0 13 12" fill="none" xmlns="http://www.w3.org/2000/svg">
<path d="M5.0625 0.691406L0.25 5.28516C0.113281 5.42188 0.03125 5.58594 0.03125 5.77734C0.03125 5.94141 0.113281 6.10547 0.25 6.24219L5.0625 10.8359C5.30859 11.082 5.74609 11.082 5.99219 10.8086C6.23828 10.5625 6.23828 10.125 5.96484 9.87891L2.32812 6.43359H11.625C12.0078 6.43359 12.2812 6.13281 12.2812 5.77734C12.2812 5.39453 12.0078 5.12109 11.625 5.12109H2.32812L5.96484 1.64844C6.23828 1.40234 6.23828 0.964844 5.99219 0.71875C5.74609 0.445312 5.33594 0.445312 5.0625 0.691406Z" fill="#211D33"/>
</svg>
