<svg width="13" height="12" viewBox="0 0 13 12" fill="none" xmlns="http://www.w3.org/2000/svg">
<path d="M7.9375 0.691406L12.75 5.28516C12.8867 5.42188 12.9688 5.58594 12.9688 5.77734C12.9688 5.94141 12.8867 6.10547 12.75 6.24219L7.9375 10.8359C7.69141 11.082 7.25391 11.082 7.00781 10.8086C6.76172 10.5625 6.76172 10.125 7.03516 9.87891L10.6719 6.43359H1.375C0.992188 6.43359 0.71875 6.13281 0.71875 5.77734C0.71875 5.39453 0.992188 5.12109 1.375 5.12109H10.6719L7.03516 1.64844C6.76172 1.40234 6.76172 0.964844 7.00781 0.71875C7.25391 0.445312 7.66406 0.445312 7.9375 0.691406Z" fill="#211D33"/>
</svg>
