<svg width="16" height="19" viewBox="0 0 16 19" fill="none" xmlns="http://www.w3.org/2000/svg">
<path d="M3.375 7V4.75C3.375 2.28906 5.37891 0.25 7.875 0.25C10.3359 0.25 12.375 2.28906 12.375 4.75V7H13.5C14.7305 7 15.75 8.01953 15.75 9.25V16C15.75 17.2656 14.7305 18.25 13.5 18.25H2.25C0.984375 18.25 0 17.2656 0 16V9.25C0 8.01953 0.984375 7 2.25 7H3.375ZM5.0625 7H10.6875V4.75C10.6875 3.20312 9.42188 1.9375 7.875 1.9375C6.29297 1.9375 5.0625 3.20312 5.0625 4.75V7ZM1.6875 16C1.6875 16.3164 1.93359 16.5625 2.25 16.5625H13.5C13.7812 16.5625 14.0625 16.3164 14.0625 16V9.25C14.0625 8.96875 13.7812 8.6875 13.5 8.6875H2.25C1.93359 8.6875 1.6875 8.96875 1.6875 9.25V16Z" fill="white"/>
</svg>
